<svg xmlns="http://www.w3.org/2000/svg" viewBox="0 0 391.54 201.2"><defs><style>.cls-1{fill:#97ae46;}.cls-2{fill:#fff;}</style></defs><g id="Lag_2" data-name="Lag 2"><g id="Lag_3" data-name="Lag 3"><path class="cls-1" d="M84.32,13.52c0-5.34.31-8.74.34-9l.15-4,4-.2a132.56,132.56,0,0,1,27.79,1,108,108,0,0,1,24.78,6.28,68.75,68.75,0,0,1,23.59,15,111.26,111.26,0,0,1,21,29.07A116.51,116.51,0,0,1,195.53,79c3.52,16.36,2.47,28.14,2.42,28.63l-.33,3.86s-5.65.44-6.27.46c-1.94.07-4,.07-6.24,0a125.69,125.69,0,0,1-21.23-2.54,120.07,120.07,0,0,1-28.25-9.54,108.64,108.64,0,0,1-29.5-21A65.05,65.05,0,0,1,92.48,58.17a96.34,96.34,0,0,1-5.6-18.39h-.07l-1.57-9.3h.12a138,138,0,0,1-1-17m15.83-4.19L116.3,25.48V10.64l-.73-.1a132,132,0,0,0-15.42-1.21M125.6,12.4V34.78L140.86,50V17.43c-.9-.4-1.82-.78-2.75-1.15A88.54,88.54,0,0,0,125.6,12.4m32.83,16.76a51.75,51.75,0,0,0-8.27-6.69V59.34l15.23,15.23V36.85a101,101,0,0,0-7-7.69M177.54,55.6q-1.35-2.68-2.85-5.28V83.84h0l14,14a108.25,108.25,0,0,0-2.35-17.24,106.59,106.59,0,0,0-8.82-25.05m-38,35.85a110.73,110.73,0,0,0,25.93,8.82,119.51,119.51,0,0,0,14.61,2.11l-14-14H133.74c1.88,1.07,3.81,2.09,5.77,3M120.16,79.1h36.61L142.05,64.38H106.26a50.26,50.26,0,0,0,6.45,8,98.84,98.84,0,0,0,7.45,6.72M101,54.53c.07.18.15.37.24.55h31.47l-15.3-15.3H96.39A83.88,83.88,0,0,0,101,54.53m7.11-24L93.64,16a129.86,129.86,0,0,0,1.1,14.51Z"></path><path class="cls-2" d="M219.06,89.48h-3.21v-7.4h14.5c11.1,0,18.21,6.46,18.21,17.56s-7.11,17.71-18.21,17.71h-7.69c-2.52,0-3.6-1.09-3.6-3.6ZM229,110h1c5.82,0,9.37-3.55,9.37-10.31s-3.7-10.16-9.37-10.16h-2.12v19.38A1,1,0,0,0,229,110Z"></path><path class="cls-2" d="M266.12,101.37h.35v-.3c0-2.42-1.14-3.31-3.26-3.31-1.08,0-2.22.25-2.22,1.24v1.13H253.1V97.32c0-5.67,7.2-6,10.11-6,8.88,0,11.79,4.54,11.79,10.36v7.4a1,1,0,0,0,1.09,1.09H278v7.15h-7.4c-2.46,0-3.35-1.53-3.35-2.66v-.45h-.1s-1.78,3.7-7.11,3.7c-4.73,0-8.63-3.16-8.63-8.19C251.37,102.21,262.18,101.37,266.12,101.37Zm-3.75,10.06c2.22,0,4.2-2.42,4.2-4.49v-.39h-.79c-2.72,0-5.82.74-5.82,2.76C260,110.49,260.7,111.43,262.37,111.43Z"></path><path class="cls-2" d="M282.7,100.18a1,1,0,0,0-1.08-1.08h-1.88V91.94h7.6c2.32,0,3.55,1.14,3.55,2.86v.35a5,5,0,0,1-.05.59h.1a8.87,8.87,0,0,1,8-4.39c5.13,0,9.13,2.37,9.13,9.52v8.24a1,1,0,0,0,1.08,1.09h1.88v7.15h-7.9c-2.51,0-3.6-1.09-3.6-3.6v-11.3c0-2.37-.93-3.35-2.81-3.35a5,5,0,0,0-5,3.65,10,10,0,0,0-.5,3.35v11.25H282.7Z"></path><path class="cls-2" d="M316.74,107.83s3.56,3.65,7.45,3.65c1.24,0,1.93-.35,1.93-1.23,0-2.12-12.73-2.82-12.73-11,0-5.48,5.08-7.85,10.46-7.85,4.14,0,9.86,1.19,9.86,5.77v3h-7.4V98.9c0-.69-1.08-1.18-2.32-1.18s-2.26.39-2.26,1.18c0,2.61,12.87,2.27,12.87,10.8,0,5.13-4.49,8.24-10.41,8.24A15.36,15.36,0,0,1,313,113.3Z"></path><path class="cls-2" d="M339.83,90.32a1,1,0,0,0-1.08-1.09h-1.88V82.08h7.9c2.51,0,3.6.34,3.6,2.86v15.39h1.33c.74,0,1.58,0,2-.79l4.15-7.6h9.27l-5.77,9.77a5.51,5.51,0,0,1-1.88,2.12v.1a4.32,4.32,0,0,1,1.93,2.12l1.63,3.31c.34.69.88.84,1.87.84h2v7.15h-6.46c-1.82,0-2.81-.3-3.65-1.92l-3.65-7.11a2,2,0,0,0-2-.84h-.74v9.87h-8.54Z"></path><path class="cls-2" d="M379.79,91.35c7.5,0,11.75,5.23,11.75,12.29,0,.83-.2,2.56-.2,2.56h-16a5.66,5.66,0,0,0,5.92,4.64,11.79,11.79,0,0,0,6.75-2.67l3.41,5.73a16.41,16.41,0,0,1-10.86,4c-9.07,0-14-6.56-14-13.32C366.57,97.17,371.61,91.35,379.79,91.35Zm3,9.67a3.2,3.2,0,0,0-3-3.26,4.08,4.08,0,0,0-4.24,3.26Z"></path><path class="cls-2" d="M0,153.91H.94c.79,0,1-.25,1.33-1.09L11.89,126h9.17l9.62,26.78c.3.84.55,1.09,1.34,1.09H33v7.4H27.28c-2.47,0-3.45-.74-4.14-2.86l-1.53-4.54H11.35l-1.53,4.54c-.69,2.12-1.68,2.86-4.15,2.86H0Zm19.73-7.15L18,140.89c-.69-2.22-1.43-5.83-1.43-5.83h-.1s-.74,3.61-1.43,5.83l-1.78,5.87Z"></path><path class="cls-2" d="M37.35,144.14a1,1,0,0,0-1.09-1.08H34.39V135.9H42c2.32,0,3.56,1.14,3.56,2.86v.35a5,5,0,0,1,0,.59h.1a8.87,8.87,0,0,1,8-4.39c5.13,0,9.12,2.37,9.12,9.52v8.24a1,1,0,0,0,1.09,1.09h1.87v7.15H57.82c-2.52,0-3.6-1.09-3.6-3.6v-11.3c0-2.37-.94-3.35-2.81-3.35a5,5,0,0,0-5,3.65,10.3,10.3,0,0,0-.49,3.35v11.25H37.35Z"></path><path class="cls-2" d="M70.25,134.27a1,1,0,0,0-1.08-1.08H67.29V126h7.9c2.51,0,3.6,1.08,3.6,3.6v23.43a1,1,0,0,0,1.08,1.09h1.88v7.15H73.86c-2.52,0-3.61-1.09-3.61-3.6Z"></path><path class="cls-2" d="M99.07,145.23h.19v-.4c0-2.41-1.43-3.11-3.3-3.11-1.09,0-2.22.25-2.22,1.24v1.13h-7.9v-2.81c0-5.08,5.83-6,10.12-6,3.94,0,6.46.94,8.24,2.52h.09a11.47,11.47,0,0,1,7.6-2.52c6.56,0,10.61,4.19,11.55,10a15.27,15.27,0,0,1,.19,2.56c0,.84-.19,2.57-.19,2.57h-16c.64,3.2,3.21,4.39,5.92,4.39a11.84,11.84,0,0,0,6.76-2.67l3.4,5.73a16.37,16.37,0,0,1-10.85,4c-4.88,0-8-1.73-10.21-4.44h-.1c-.64,1.14-3.5,4.39-9.52,4.39-4.74,0-8.63-3.16-8.63-8.14C84.17,146.16,95,145.23,99.07,145.23Zm-3.8,10.16c2.32,0,4.14-2.47,4.14-4.54v-.44h-.84c-2.71,0-5.82.84-5.82,2.86C92.75,154.45,93.49,155.39,95.27,155.39Zm19.63-10.16c0-1.58-1.13-3.51-3-3.51-2.46,0-3.7,1.63-4.24,3.51Z"></path><path class="cls-2" d="M137.89,135.31c5.18,0,7.36,3,7.36,3h.09v-.34a2.46,2.46,0,0,1,2.72-2h7.69v7.16H154c-.64,0-1.09.34-1.09.93v15c0,9.27-7.4,12.68-14.35,12.68a22.47,22.47,0,0,1-9.62-2.27l2.46-6.66a16.89,16.89,0,0,0,7.11,1.63c3,0,5.87-1.14,5.87-4.89v-.39c0-.3,0-.94,0-.94h-.1c-1.48,1.63-3.41,2.42-6.37,2.42-7.64,0-11.44-6.27-11.44-12.78S130.2,135.31,137.89,135.31Zm6.66,12.58c0-4.49-2.36-5.47-4.93-5.47-3,0-4.54,2.17-4.54,5.08,0,3.15,1.48,6,4.89,6C142.19,153.46,144.55,152.33,144.55,147.89Z"></path><path class="cls-2" d="M161.53,151.79s3.55,3.65,7.45,3.65c1.23,0,1.92-.35,1.92-1.23,0-2.13-12.73-2.82-12.73-11.06,0-5.47,5.08-7.84,10.46-7.84,4.14,0,9.87,1.19,9.87,5.77v3h-7.4v-1.23c0-.69-1.09-1.19-2.32-1.19s-2.27.4-2.27,1.19c0,2.61,12.88,2.27,12.88,10.8,0,5.13-4.49,8.24-10.41,8.24a15.4,15.4,0,0,1-11.25-4.64Z"></path><path class="cls-2" d="M193.55,135.31c5.18,0,7.35,3,7.35,3H201v-.34a2.46,2.46,0,0,1,2.72-2h7.69v7.16h-1.77c-.64,0-1.09.34-1.09.93v15c0,9.27-7.4,12.68-14.35,12.68a22.47,22.47,0,0,1-9.62-2.27l2.46-6.66a16.89,16.89,0,0,0,7.11,1.63c3.06,0,5.87-1.14,5.87-4.89v-.39c0-.3.05-.94.05-.94H200c-1.48,1.63-3.4,2.42-6.36,2.42-7.65,0-11.45-6.27-11.45-12.78S185.85,135.31,193.55,135.31Zm6.66,12.58c0-4.49-2.37-5.47-4.94-5.47-3,0-4.54,2.17-4.54,5.08,0,3.15,1.48,6,4.89,6C197.84,153.46,200.21,152.33,200.21,147.89Z"></path><path class="cls-2" d="M228.48,145.33h.34V145c0-2.42-1.13-3.31-3.26-3.31-1.08,0-2.21.25-2.21,1.24v1.13h-7.9v-2.81c0-5.67,7.2-6,10.11-6,8.89,0,11.8,4.54,11.8,10.36v7.4a1,1,0,0,0,1.08,1.09h1.88v7.15h-7.4c-2.47,0-3.36-1.53-3.36-2.67v-.44h-.1s-1.77,3.7-7.1,3.7c-4.74,0-8.63-3.16-8.63-8.19C213.73,146.16,224.53,145.33,228.48,145.33Zm-3.75,10.06c2.22,0,4.19-2.42,4.19-4.49v-.39h-.79c-2.71,0-5.82.74-5.82,2.76C222.31,154.45,223.05,155.39,224.73,155.39Z"></path><path class="cls-2" d="M245.06,144.14a1,1,0,0,0-1.09-1.08h-1.88V135.9h7.55c2.32,0,3.6.94,3.6,3.26v1.33a7.06,7.06,0,0,1-.1,1.28h.1a8.83,8.83,0,0,1,8.09-6.31,5.66,5.66,0,0,1,1,.1v8.38a9.59,9.59,0,0,0-1.73-.14c-2,0-5.32.64-6.56,4.44a11.67,11.67,0,0,0-.44,3.45v9.62h-8.53Z"></path><path class="cls-2" d="M267.31,142.56h-3.26V135.9h3.5v-6.85h8.29v6.85h5.33v6.66h-5.33v8.24c0,2.86,2.91,3.26,4.54,3.26a11.07,11.07,0,0,0,1.13-.05v7.4a16.27,16.27,0,0,1-2.32.15c-4,0-11.88-1.09-11.88-9.62Z"></path><path class="cls-2" d="M286.89,144.14a1,1,0,0,0-1.08-1.08h-1.88V135.9h7.6c2.32,0,3.55,1.14,3.55,2.86v.35a5,5,0,0,1-.05.59h.1a8.87,8.87,0,0,1,8-4.39c5.13,0,9.13,2.37,9.13,9.52v8.24a1,1,0,0,0,1.08,1.09h1.88v7.15h-7.9c-2.51,0-3.6-1.09-3.6-3.6v-11.3c0-2.37-.93-3.35-2.81-3.35a5,5,0,0,0-5,3.65,10,10,0,0,0-.49,3.35v11.25h-8.54Z"></path><path class="cls-2" d="M330.55,135.31c7.5,0,11.75,5.23,11.75,12.28,0,.84-.2,2.57-.2,2.57h-16A5.67,5.67,0,0,0,332,154.8a11.8,11.8,0,0,0,6.76-2.67l3.41,5.73a16.41,16.41,0,0,1-10.86,4c-9.07,0-14-6.56-14-13.32C317.33,141.13,322.36,135.31,330.55,135.31Zm3,9.67a3.2,3.2,0,0,0-3-3.26,4.08,4.08,0,0,0-4.24,3.26Z"></path><path class="cls-2" d="M347.82,144.14a1,1,0,0,0-1.08-1.08h-1.88V135.9h7.55c2.32,0,3.6.94,3.6,3.26v1.33a7.06,7.06,0,0,1-.1,1.28h.1a8.82,8.82,0,0,1,8.09-6.31,5.81,5.81,0,0,1,1,.1v8.38a9.59,9.59,0,0,0-1.73-.14c-2,0-5.33.64-6.56,4.44a11.35,11.35,0,0,0-.44,3.45v9.62h-8.54Z"></path><path class="cls-2" d="M379.79,135.31c7.5,0,11.74,5.23,11.74,12.28,0,.84-.2,2.57-.2,2.57h-16a5.67,5.67,0,0,0,5.92,4.64,11.84,11.84,0,0,0,6.76-2.67l3.4,5.73a16.37,16.37,0,0,1-10.85,4c-9.08,0-14-6.56-14-13.32C366.57,141.13,371.6,135.31,379.79,135.31Zm3,9.67a3.2,3.2,0,0,0-3-3.26,4.08,4.08,0,0,0-4.24,3.26Z"></path><path class="cls-2" d="M90.76,201.2a4.83,4.83,0,0,1-2.84-.74,5,5,0,0,1-1.67-2.21l1.36-.74a10.24,10.24,0,0,0,.72,1.2,2.35,2.35,0,0,0,.9.65,3.88,3.88,0,0,0,1.61.28,3.44,3.44,0,0,0,2.4-.87,3.75,3.75,0,0,0,1-2.92v-12.3H96v11.78a8.57,8.57,0,0,1-.32,2.43,5,5,0,0,1-.85,1.7,4.42,4.42,0,0,1-1.23,1,4.68,4.68,0,0,1-1.37.55A6.51,6.51,0,0,1,90.76,201.2Z"></path><path class="cls-2" d="M105.35,201.2a4.92,4.92,0,0,1-4-1.74,8.79,8.79,0,0,1,0-9.75,5.32,5.32,0,0,1,7.9,0,8.74,8.74,0,0,1,0,9.75A4.9,4.9,0,0,1,105.35,201.2Zm0-1.56a3.06,3.06,0,0,0,2.66-1.35,6.36,6.36,0,0,0,1-3.73,6.43,6.43,0,0,0-.93-3.72,3.4,3.4,0,0,0-5.38,0,8,8,0,0,0,0,7.5A3.07,3.07,0,0,0,105.35,199.64Z"></path><path class="cls-2" d="M114.37,200.91V188.23h1.74V190a3.29,3.29,0,0,1,3.2-2.08,2.93,2.93,0,0,1,1.78.52l-.27,1.68a3.12,3.12,0,0,0-1.64-.47,2.94,2.94,0,0,0-2.12,1,4.31,4.31,0,0,0-1,3.09v7.17Z"></path><path class="cls-2" d="M128.19,201.2a4.58,4.58,0,0,1-3.83-1.8,9,9,0,0,1,0-9.7,4.61,4.61,0,0,1,3.83-1.76,5.22,5.22,0,0,1,3.37,1.19v-5.26l1.74-.87v17.91h-1.74v-1.09A4.61,4.61,0,0,1,128.19,201.2Zm.2-1.56a3.39,3.39,0,0,0,1.81-.52,3.91,3.91,0,0,0,1.36-1.46v-6.33a3.56,3.56,0,0,0-3.17-1.83,3.11,3.11,0,0,0-2.68,1.31,7.47,7.47,0,0,0,.05,7.38A3,3,0,0,0,128.39,199.64Z"></path><path class="cls-2" d="M142.4,201.2a4.82,4.82,0,0,1-4-1.93,7.46,7.46,0,0,1-1.51-4.71,7.25,7.25,0,0,1,1.51-4.86,5,5,0,0,1,4-1.76,4.62,4.62,0,0,1,3.59,1.55,6.52,6.52,0,0,1,1.42,4.57c0,.45,0,.85,0,1.22h-8.63a5.83,5.83,0,0,0,1.19,3.15,3.15,3.15,0,0,0,2.55,1.16,4.7,4.7,0,0,0,2.85-1l1,1.17A6,6,0,0,1,142.4,201.2Zm-3.72-7.49h7a4.56,4.56,0,0,0-1-3.26,3.14,3.14,0,0,0-2.24-.95,3.45,3.45,0,0,0-2.61,1.06A4.79,4.79,0,0,0,138.68,193.71Z"></path><path class="cls-2" d="M158.69,200.91v-7.74a4.1,4.1,0,0,0-.79-2.79,2.75,2.75,0,0,0-2.16-.88c-2.08,0-3.13,1.2-3.13,3.62v7.79h-1.73V188.23h1.73v1.39a3.77,3.77,0,0,1,3.28-1.68,4.08,4.08,0,0,1,3.43,1.41,7.37,7.37,0,0,1,1.11,4.54v7Z"></path><path class="cls-2" d="M168.34,201.2A5.57,5.57,0,0,1,164,199l1.22-1.07a4.24,4.24,0,0,0,3.3,1.74,3.07,3.07,0,0,0,1.78-.49,1.56,1.56,0,0,0,.7-1.35,2,2,0,0,0-.25-1,2.54,2.54,0,0,0-.78-.79,7.48,7.48,0,0,0-1-.56c-.28-.13-.67-.3-1.16-.5a15.71,15.71,0,0,1-1.47-.67,7.23,7.23,0,0,1-1.16-.74,2.82,2.82,0,0,1-.88-1.05,3.25,3.25,0,0,1-.29-1.38,2.81,2.81,0,0,1,1.14-2.33,4.63,4.63,0,0,1,3-.89,5.12,5.12,0,0,1,4.12,1.93l-1.14,1a4.21,4.21,0,0,0-3-1.37,3,3,0,0,0-1.74.45,1.39,1.39,0,0,0-.66,1.21,1.54,1.54,0,0,0,.17.7,2.23,2.23,0,0,0,.4.53,3.51,3.51,0,0,0,.69.47c.32.18.57.3.75.38l.89.36q.75.28,1.17.48a8.35,8.35,0,0,1,1.05.57,4.32,4.32,0,0,1,1,.77,3.55,3.55,0,0,1,.59,1,3.32,3.32,0,0,1,.26,1.35,3.09,3.09,0,0,1-1.15,2.53A4.77,4.77,0,0,1,168.34,201.2Z"></path><path class="cls-2" d="M187.21,201.2a4.8,4.8,0,0,1-1.55-.24,5.19,5.19,0,0,1-1.07-.5q-.36-.26-.9-.69v1.14H182v-17l1.74-.87v6.47a4.52,4.52,0,0,1,1.54-1.11,4.35,4.35,0,0,1,1.83-.42,4.61,4.61,0,0,1,3.82,1.76,7.56,7.56,0,0,1,1.42,4.86,7.89,7.89,0,0,1-1.34,4.92A4.49,4.49,0,0,1,187.21,201.2Zm-.27-1.56a3,3,0,0,0,2.65-1.34,8.35,8.35,0,0,0,0-7.5,3,3,0,0,0-2.65-1.3,3.34,3.34,0,0,0-1.95.61,4.17,4.17,0,0,0-1.3,1.32v6.23a4.22,4.22,0,0,0,1.41,1.44A3.53,3.53,0,0,0,186.94,199.64Z"></path><path class="cls-2" d="M200.53,201.2a4.8,4.8,0,0,1-4-1.93,7.41,7.41,0,0,1-1.52-4.71,7.2,7.2,0,0,1,1.52-4.86,5,5,0,0,1,4-1.76,4.62,4.62,0,0,1,3.59,1.55,6.52,6.52,0,0,1,1.42,4.57c0,.45,0,.85,0,1.22h-8.63a5.83,5.83,0,0,0,1.19,3.15,3.15,3.15,0,0,0,2.55,1.16,4.7,4.7,0,0,0,2.85-1l1,1.17A6,6,0,0,1,200.53,201.2Zm-3.72-7.49h7a4.52,4.52,0,0,0-1-3.26,3.14,3.14,0,0,0-2.24-.95,3.45,3.45,0,0,0-2.61,1.06A4.79,4.79,0,0,0,196.81,193.71Z"></path><path class="cls-2" d="M213.37,201.2a4.6,4.6,0,0,1-3.83-1.8,9.1,9.1,0,0,1,0-9.7,4.62,4.62,0,0,1,3.83-1.76,5.23,5.23,0,0,1,3.38,1.19v-5.26l1.73-.87v17.91h-1.73v-1.09A4.62,4.62,0,0,1,213.37,201.2Zm.2-1.56a3.34,3.34,0,0,0,1.81-.52,3.86,3.86,0,0,0,1.37-1.46v-6.33a3.56,3.56,0,0,0-3.18-1.83,3.1,3.1,0,0,0-2.67,1.31,6.37,6.37,0,0,0-1,3.75,6.31,6.31,0,0,0,1,3.63A3.05,3.05,0,0,0,213.57,199.64Z"></path><path class="cls-2" d="M226.52,201.2a5.57,5.57,0,0,1-4.37-2.2l1.22-1.07a4.24,4.24,0,0,0,3.3,1.74,3,3,0,0,0,1.78-.49,1.54,1.54,0,0,0,.7-1.35,2,2,0,0,0-.25-1,2.54,2.54,0,0,0-.78-.79,7.48,7.48,0,0,0-1-.56c-.28-.13-.67-.3-1.16-.5a15.71,15.71,0,0,1-1.47-.67,7.7,7.7,0,0,1-1.16-.74,2.82,2.82,0,0,1-.88-1.05,3.25,3.25,0,0,1-.29-1.38,2.81,2.81,0,0,1,1.14-2.33,4.64,4.64,0,0,1,3-.89,5.1,5.1,0,0,1,4.11,1.93l-1.14,1a4.2,4.2,0,0,0-3-1.37,3,3,0,0,0-1.75.45,1.39,1.39,0,0,0-.66,1.21,1.54,1.54,0,0,0,.17.7,2.23,2.23,0,0,0,.4.53,3.51,3.51,0,0,0,.69.47c.32.18.57.3.75.38l.89.36q.75.28,1.17.48a8.35,8.35,0,0,1,1.05.57,4.1,4.1,0,0,1,1,.77,3.55,3.55,0,0,1,.59,1,3.32,3.32,0,0,1,.26,1.35,3.09,3.09,0,0,1-1.15,2.53A4.77,4.77,0,0,1,226.52,201.2Z"></path><path class="cls-2" d="M237.6,201.2c-1.67,0-2.5-1-2.5-2.9v-8.5h-2.16v-1.57h2.16v-4.36l1.74-.87v5.23h3.22v1.57h-3.22v7.76a3.33,3.33,0,0,0,.27,1.49,1.12,1.12,0,0,0,1.09.52,3.56,3.56,0,0,0,1.91-.75l-.2,1.81A4.82,4.82,0,0,1,237.6,201.2Z"></path><path class="cls-2" d="M248,201.2a4.82,4.82,0,0,1-4-1.93,7.41,7.41,0,0,1-1.52-4.71A7.2,7.2,0,0,1,244,189.7a5,5,0,0,1,4-1.76,4.66,4.66,0,0,1,3.6,1.55,6.56,6.56,0,0,1,1.41,4.57c0,.45,0,.85,0,1.22H244.3a5.91,5.91,0,0,0,1.19,3.15,3.18,3.18,0,0,0,2.55,1.16,4.75,4.75,0,0,0,2.86-1l.94,1.17A6,6,0,0,1,248,201.2Zm-3.72-7.49h7a4.52,4.52,0,0,0-1-3.26,3.14,3.14,0,0,0-2.24-.95,3.41,3.41,0,0,0-2.6,1.06A4.79,4.79,0,0,0,244.25,193.71Z"></path><path class="cls-2" d="M262.16,200.91V183.82l1.73-.82v6.65a3.7,3.7,0,0,1,3.28-1.71,4.09,4.09,0,0,1,3.43,1.41,7.37,7.37,0,0,1,1.1,4.54v7H270v-7.74a4.1,4.1,0,0,0-.8-2.79,2.72,2.72,0,0,0-2.15-.88c-2.09,0-3.13,1.2-3.13,3.62v7.79Z"></path><path class="cls-2" d="M283.34,200.91v-1.24a5.51,5.51,0,0,1-3.72,1.53,4.35,4.35,0,0,1-3.15-1.1,4.18,4.18,0,0,1-1.17-3.19,3.75,3.75,0,0,1,1.33-3.12,5.07,5.07,0,0,1,3.28-1.07,7.22,7.22,0,0,1,3.43.89v-1.06c0-2.07-.93-3.1-2.78-3.1a6.71,6.71,0,0,0-3.77,1.36l-.5-1.49a8.25,8.25,0,0,1,4.44-1.38,5.57,5.57,0,0,1,1.44.18,4.42,4.42,0,0,1,1.33.65,3.14,3.14,0,0,1,1.05,1.36,5.54,5.54,0,0,1,.4,2.2v8.58Zm-3.55-1.22a4.55,4.55,0,0,0,3.55-2v-2.45a5.78,5.78,0,0,0-3.25-1.05,3.63,3.63,0,0,0-2.27.69,2.32,2.32,0,0,0-.91,2,2.69,2.69,0,0,0,.76,2A2.84,2.84,0,0,0,279.79,199.69Zm3-13.89a2.79,2.79,0,0,1-4,0,2.72,2.72,0,0,1-.85-2,2.62,2.62,0,0,1,.85-1.95,2.91,2.91,0,0,1,4,0,2.59,2.59,0,0,1,.85,1.95A2.68,2.68,0,0,1,282.76,185.8Zm-2-.44a1.31,1.31,0,0,0,1-.44,1.58,1.58,0,0,0,.4-1.1,1.47,1.47,0,0,0-.4-1.07,1.37,1.37,0,0,0-1-.39,1.34,1.34,0,0,0-1,.4,1.42,1.42,0,0,0-.41,1.06,1.5,1.5,0,0,0,.41,1.1A1.3,1.3,0,0,0,280.76,185.36Z"></path><path class="cls-2" d="M296.73,200.91v-7.74a4.1,4.1,0,0,0-.8-2.79,2.73,2.73,0,0,0-2.15-.88c-2.09,0-3.13,1.2-3.13,3.62v7.79h-1.74V188.23h1.74v1.39a3.76,3.76,0,0,1,3.27-1.68,4.1,4.1,0,0,1,3.44,1.41,7.37,7.37,0,0,1,1.1,4.54v7Z"></path><path class="cls-2" d="M307.17,201.2a4.58,4.58,0,0,1-3.83-1.8,9,9,0,0,1,0-9.7,4.61,4.61,0,0,1,3.83-1.76,5.22,5.22,0,0,1,3.37,1.19v-5.26l1.74-.87v17.91h-1.74v-1.09A4.61,4.61,0,0,1,307.17,201.2Zm.2-1.56a3.39,3.39,0,0,0,1.81-.52,3.91,3.91,0,0,0,1.36-1.46v-6.33a3.56,3.56,0,0,0-3.17-1.83,3.11,3.11,0,0,0-2.68,1.31,7.47,7.47,0,0,0,.05,7.38A3,3,0,0,0,307.37,199.64Z"></path><path class="cls-2" d="M320.14,200.91l-4.64-12.68h1.79l3.07,8.63c0,.1.08.24.14.41l.16.49.15.44.15-.44.16-.49c.06-.17.1-.31.13-.41l3-8.63H326l-4.64,12.68Z"></path><path class="cls-2" d="M332.29,201.2a4.38,4.38,0,0,1-3.15-1.1,4.18,4.18,0,0,1-1.16-3.19,3.77,3.77,0,0,1,1.31-3.12,5.09,5.09,0,0,1,3.3-1.07,7.21,7.21,0,0,1,3.42.89v-1.06c0-2.07-.93-3.1-2.78-3.1a6.73,6.73,0,0,0-3.77,1.36l-.49-1.49a8.2,8.2,0,0,1,4.44-1.38c1.9,0,3.15.71,3.77,2.13a5,5,0,0,1,4.26-2.13,4.58,4.58,0,0,1,3.66,1.6,6.69,6.69,0,0,1,1.38,4.52c0,.45,0,.85-.05,1.22H337.8a5.77,5.77,0,0,0,1.22,3.18,3.16,3.16,0,0,0,2.5,1.13,4.73,4.73,0,0,0,2.87-1l.95,1.17a6.12,6.12,0,0,1-3.9,1.43,4.7,4.7,0,0,1-2.68-.77A5.47,5.47,0,0,1,337,198.5a5.52,5.52,0,0,1-2.14,2A5.37,5.37,0,0,1,332.29,201.2Zm.17-1.51a3.88,3.88,0,0,0,2.24-.73,5.65,5.65,0,0,0,1.68-1.77,7.71,7.71,0,0,1-.37-1.91,6,6,0,0,0-3.25-1.05,3.65,3.65,0,0,0-2.27.69,2.34,2.34,0,0,0-.9,2,2.72,2.72,0,0,0,.75,2A2.87,2.87,0,0,0,332.46,199.69Zm5.29-6h7a6.48,6.48,0,0,0-.31-2.09,3,3,0,0,0-.84-1.32,3.45,3.45,0,0,0-1-.62,3.19,3.19,0,0,0-1.06-.18,3.45,3.45,0,0,0-2.61,1.06A4.79,4.79,0,0,0,337.75,193.71Z"></path><path class="cls-2" d="M350,200.91V188.23h1.73V190a3.3,3.3,0,0,1,3.2-2.08,3,3,0,0,1,1.79.52l-.27,1.68a3.14,3.14,0,0,0-1.64-.47,2.9,2.9,0,0,0-2.12,1,4.27,4.27,0,0,0-1,3.09v7.17Z"></path><path class="cls-2" d="M369.09,200.91h-1.91l-4.06-8L361,195.13v5.78h-1.74V183.84L361,183v10.07l4.49-4.84h2l-3.18,3.38Z"></path><path class="cls-2" d="M375.84,201.2a4.8,4.8,0,0,1-4-1.93,7.41,7.41,0,0,1-1.52-4.71,7.2,7.2,0,0,1,1.52-4.86,5,5,0,0,1,4-1.76,4.66,4.66,0,0,1,3.6,1.55,6.56,6.56,0,0,1,1.41,4.57c0,.45,0,.85-.05,1.22h-8.63a5.83,5.83,0,0,0,1.19,3.15,3.15,3.15,0,0,0,2.55,1.16,4.75,4.75,0,0,0,2.86-1l.94,1.17A6,6,0,0,1,375.84,201.2Zm-3.72-7.49h7a4.52,4.52,0,0,0-1-3.26,3.14,3.14,0,0,0-2.24-.95,3.45,3.45,0,0,0-2.61,1.06A4.84,4.84,0,0,0,372.12,193.71Z"></path><path class="cls-2" d="M384.32,200.91V188.23h1.74V190a3.29,3.29,0,0,1,3.2-2.08,2.93,2.93,0,0,1,1.78.52l-.27,1.68a3.12,3.12,0,0,0-1.64-.47,2.92,2.92,0,0,0-2.12,1,4.27,4.27,0,0,0-.95,3.09v7.17Z"></path></g></g></svg>